<?xml version="1.0" encoding="utf-8"?>
<!-- Generator: Adobe Illustrator 23.0.2, SVG Export Plug-In . SVG Version: 6.00 Build 0)  -->
<svg version="1.1" id="Слой_1" xmlns="http://www.w3.org/2000/svg" xmlns:xlink="http://www.w3.org/1999/xlink" x="0px" y="0px"
	 viewBox="0 0 706 250" style="enable-background:new 0 0 706 250;" xml:space="preserve">
<style type="text/css">
	.st0{fill:#0077EE;}
</style>
<polygon class="st0" points="665.5,94 665.5,205 520.4,205 520.4,39 659,39 665.5,39 675,39 675,29 511,29 511,215 675,215 675,94 
	"/>
<g>
	<path class="st0" d="M670.5,87.5c-3.7,0-6.8-0.6-9.3-1.6c-2.5-1.1-4.4-2.5-5.7-4.3c-1.3-1.8-2-3.6-2.1-5.6c0-0.4,0.1-0.7,0.4-0.9
		c0.2-0.2,0.5-0.4,0.9-0.4h5.3c0.5,0,0.9,0.1,1.2,0.3c0.3,0.2,0.5,0.5,0.7,0.8c0.2,0.8,0.7,1.5,1.4,2.3c0.7,0.7,1.6,1.4,2.8,1.8
		c1.2,0.5,2.7,0.7,4.5,0.7c2.9,0,5-0.5,6.5-1.4c1.4-1,2.1-2.3,2.1-3.9c0-1.2-0.4-2.1-1.1-2.8c-0.8-0.7-1.9-1.3-3.5-1.9
		c-1.6-0.6-3.7-1.2-6.3-1.8c-3-0.7-5.5-1.6-7.5-2.6s-3.5-2.3-4.6-3.9c-1-1.6-1.5-3.5-1.5-5.9c0-2.3,0.6-4.4,1.9-6.2
		c1.3-1.8,3.1-3.2,5.4-4.3c2.3-1,5.1-1.6,8.4-1.6c2.6,0,4.9,0.4,6.9,1.1c2,0.7,3.7,1.6,5,2.8s2.3,2.4,3,3.7c0.7,1.3,1.1,2.6,1.1,3.8
		c0,0.3-0.1,0.6-0.3,0.9c-0.2,0.3-0.5,0.4-0.9,0.4h-5.6c-0.3,0-0.6-0.1-1-0.2c-0.3-0.2-0.6-0.5-0.8-0.9c-0.2-1.2-1-2.3-2.3-3.2
		c-1.3-0.9-3-1.3-5.1-1.3c-2.2,0-3.9,0.4-5.2,1.2c-1.3,0.8-2,2-2,3.7c0,1.1,0.3,2.1,1,2.8c0.7,0.7,1.7,1.4,3.2,2
		c1.5,0.6,3.4,1.2,5.8,1.8c3.4,0.8,6.2,1.6,8.3,2.6c2.2,1,3.7,2.3,4.7,3.8c1,1.5,1.5,3.5,1.5,5.9c0,2.6-0.7,4.9-2.1,6.8
		s-3.4,3.3-6,4.3C676.8,87,673.9,87.5,670.5,87.5z"/>
</g>
<g>
	<path class="st0" d="M543.8,180.8c-1.1,0-2.1-0.4-2.8-1.1c-0.7-0.7-1.1-1.7-1.1-2.8v-111c0-1.2,0.4-2.2,1.1-3
		c0.7-0.7,1.7-1.1,2.8-1.1h8.5c1.4,0,2.4,0.3,3.1,1c0.7,0.7,1.1,1.2,1.4,1.7l35.9,68.7l36.2-68.7c0.2-0.5,0.7-1,1.3-1.7
		c0.6-0.7,1.6-1,3-1h8.3c1.2,0,2.2,0.4,3,1.1c0.7,0.7,1.1,1.7,1.1,3v111c0,1.1-0.4,2.1-1.1,2.8c-0.7,0.7-1.7,1.1-3,1.1H633
		c-1.1,0-2.1-0.4-2.8-1.1c-0.7-0.7-1.1-1.7-1.1-2.8V93.3l-28.4,55.4c-0.5,1.1-1.1,2-2,2.6c-0.9,0.6-2,0.9-3.4,0.9H590
		c-1.5,0-2.6-0.3-3.4-0.9c-0.8-0.6-1.5-1.5-2-2.6L556,93.3v83.6c0,1.1-0.4,2.1-1.1,2.8c-0.7,0.7-1.7,1.1-2.8,1.1H543.8z"/>
</g>
<g>
	<path class="st0" d="M34.7,100c-0.7,0-1.2-0.2-1.6-0.6c-0.4-0.4-0.6-1-0.6-1.6V32.4c0-0.7,0.2-1.3,0.6-1.8c0.4-0.4,1-0.6,1.6-0.6h5
		c0.8,0,1.4,0.2,1.8,0.6c0.4,0.4,0.7,0.7,0.8,1L63.4,72l21.3-40.4c0.1-0.3,0.4-0.6,0.8-1c0.4-0.4,0.9-0.6,1.8-0.6h4.9
		c0.7,0,1.3,0.2,1.8,0.6c0.4,0.4,0.6,1,0.6,1.8v65.3c0,0.7-0.2,1.2-0.6,1.6c-0.4,0.4-1,0.6-1.8,0.6h-4.9c-0.7,0-1.2-0.2-1.7-0.6
		c-0.4-0.4-0.7-1-0.7-1.6V48.5L68.2,81.1c-0.3,0.7-0.7,1.2-1.2,1.5c-0.5,0.4-1.2,0.6-2,0.6h-3.1c-0.9,0-1.5-0.2-2-0.6
		c-0.5-0.4-0.9-0.9-1.2-1.5L41.9,48.5v49.2c0,0.7-0.2,1.2-0.7,1.6c-0.4,0.4-1,0.6-1.6,0.6H34.7z"/>
	<path class="st0" d="M137,101c-5.7,0-10.6-1-14.7-3c-4.1-2-7.2-5-9.4-9.1c-2.2-4.1-3.4-9.3-3.7-15.5c-0.1-2.9-0.1-5.8-0.1-8.5
		c0-2.7,0-5.5,0.1-8.4c0.3-6.1,1.6-11.3,3.9-15.4s5.5-7.2,9.6-9.2c4.1-2,8.9-3,14.4-3c5.4,0,10.1,1,14.3,3c4.1,2,7.3,5.1,9.6,9.2
		c2.3,4.1,3.6,9.2,3.8,15.4c0.1,2.9,0.2,5.8,0.2,8.4c0,2.7-0.1,5.5-0.2,8.5c-0.2,6.2-1.4,11.4-3.6,15.5c-2.2,4.1-5.4,7.1-9.5,9.1
		C147.5,100,142.6,101,137,101z M137,92.5c5.1,0,9.2-1.5,12.4-4.6c3.2-3.1,5-8,5.3-14.9c0.1-3,0.2-5.7,0.2-8c0-2.4-0.1-5-0.2-8
		c-0.1-4.6-1-8.3-2.5-11.2c-1.6-2.9-3.6-5-6.3-6.3c-2.6-1.3-5.6-2-8.9-2c-3.3,0-6.3,0.7-8.9,2c-2.6,1.3-4.7,3.4-6.3,6.3
		c-1.6,2.9-2.5,6.6-2.7,11.2c-0.1,2.9-0.1,5.6-0.1,8c0,2.4,0,5,0.1,8c0.3,6.9,2,11.8,5.3,14.9C127.7,91,131.9,92.5,137,92.5z"/>
	<path class="st0" d="M202,101c-5.8,0-10.7-0.9-14.6-2.7c-3.9-1.8-6.9-4.1-9-6.9c-2.1-2.8-3.2-5.8-3.3-9c0-0.5,0.2-1,0.6-1.4
		c0.4-0.4,1-0.7,1.6-0.7h5.1c0.8,0,1.4,0.2,1.8,0.6c0.4,0.4,0.7,0.9,0.8,1.4c0.4,1.6,1.2,3.2,2.5,4.8c1.3,1.6,3.1,2.9,5.5,3.9
		c2.4,1,5.4,1.5,9.2,1.5c5.7,0,10-1,12.6-3c2.7-2,4.1-4.8,4.1-8.2c0-2.3-0.7-4.2-2.2-5.6c-1.4-1.4-3.6-2.7-6.5-3.9
		c-2.9-1.1-6.7-2.4-11.4-3.7c-4.9-1.4-8.9-2.9-12.1-4.6c-3.2-1.7-5.6-3.7-7.2-6.2c-1.6-2.5-2.3-5.6-2.3-9.4c0-3.6,1-6.8,2.9-9.6
		c1.9-2.8,4.7-5.1,8.4-6.8c3.7-1.7,8.1-2.5,13.2-2.5c4.1,0,7.8,0.5,10.8,1.6c3.1,1.1,5.7,2.6,7.8,4.4c2.1,1.8,3.6,3.8,4.7,5.9
		c1.1,2.1,1.6,4.1,1.7,6.1c0,0.5-0.2,0.9-0.5,1.4c-0.3,0.4-0.9,0.6-1.6,0.6h-5.3c-0.5,0-1-0.1-1.5-0.4c-0.5-0.3-0.9-0.8-1.1-1.5
		c-0.4-2.7-1.9-5-4.6-6.9c-2.7-1.9-6.1-2.8-10.4-2.8c-4.3,0-7.9,0.8-10.5,2.5c-2.7,1.7-4.1,4.3-4.1,7.8c0,2.3,0.6,4.2,1.9,5.7
		c1.3,1.5,3.3,2.8,6,3.9c2.7,1.1,6.3,2.3,10.7,3.6c5.3,1.5,9.7,3,13.1,4.6c3.4,1.6,5.9,3.7,7.5,6.1c1.6,2.4,2.5,5.5,2.5,9.4
		c0,4.2-1.1,7.8-3.3,10.8c-2.2,3-5.3,5.2-9.3,6.8C212,100.2,207.4,101,202,101z"/>
	<path class="st0" d="M244,100c-0.7,0-1.2-0.2-1.7-0.6c-0.4-0.4-0.6-1-0.6-1.6V32.4c0-0.7,0.2-1.3,0.6-1.8c0.4-0.4,1-0.6,1.7-0.6h5
		c0.8,0,1.4,0.2,1.8,0.6c0.4,0.4,0.7,0.7,0.8,1L272.7,72L294,31.6c0.1-0.3,0.4-0.6,0.8-1c0.4-0.4,1-0.6,1.8-0.6h4.9
		c0.7,0,1.3,0.2,1.8,0.6c0.4,0.4,0.6,1,0.6,1.8v65.3c0,0.7-0.2,1.2-0.6,1.6c-0.4,0.4-1,0.6-1.8,0.6h-4.9c-0.7,0-1.2-0.2-1.7-0.6
		c-0.4-0.4-0.6-1-0.6-1.6V48.5l-16.7,32.6c-0.3,0.7-0.7,1.2-1.2,1.5c-0.5,0.4-1.2,0.6-2,0.6h-3.1c-0.9,0-1.5-0.2-2-0.6
		c-0.5-0.4-0.9-0.9-1.2-1.5l-16.8-32.6v49.2c0,0.7-0.2,1.2-0.7,1.6c-0.4,0.4-1,0.6-1.6,0.6H244z"/>
	<path class="st0" d="M316.4,100c-0.5,0-1-0.2-1.4-0.6c-0.4-0.4-0.6-0.9-0.6-1.4c0-0.3,0-0.7,0.1-1.1l24.8-64.7
		c0.3-0.7,0.6-1.2,1.1-1.6c0.5-0.4,1.2-0.6,2.1-0.6h6.8c0.9,0,1.6,0.2,2.1,0.6c0.5,0.4,0.8,0.9,1.1,1.6l24.7,64.7
		c0.1,0.4,0.2,0.8,0.2,1.1c0,0.5-0.2,1-0.6,1.4c-0.4,0.4-0.9,0.6-1.4,0.6h-5.1c-0.8,0-1.4-0.2-1.8-0.6c-0.4-0.4-0.6-0.8-0.8-1.1
		l-5.5-14.2h-32.8L324,98.3c-0.1,0.3-0.3,0.7-0.7,1.1c-0.4,0.4-1,0.6-1.8,0.6H316.4z M332.4,75.5h27L345.9,40L332.4,75.5z"/>
	<path class="st0" d="M390.4,100c-0.7,0-1.3-0.2-1.7-0.6c-0.4-0.4-0.6-1-0.6-1.6V32.3c0-0.7,0.2-1.2,0.6-1.6c0.4-0.4,1-0.6,1.7-0.6
		h5.3c0.7,0,1.3,0.2,1.7,0.6c0.4,0.4,0.6,1,0.6,1.6v65.4c0,0.7-0.2,1.2-0.6,1.6c-0.4,0.4-1,0.6-1.7,0.6H390.4z"/>
	<path class="st0" d="M417.7,100c-0.7,0-1.3-0.2-1.7-0.6c-0.4-0.4-0.6-1-0.6-1.6V32.4c0-0.7,0.2-1.3,0.6-1.8c0.4-0.4,1-0.6,1.7-0.6
		h4.6c0.8,0,1.4,0.2,1.8,0.5c0.4,0.4,0.6,0.7,0.7,0.9l33.2,51v-50c0-0.7,0.2-1.3,0.6-1.8c0.4-0.4,1-0.6,1.7-0.6h4.8
		c0.7,0,1.3,0.2,1.8,0.6c0.4,0.4,0.6,1,0.6,1.8v65.2c0,0.7-0.2,1.2-0.6,1.7c-0.4,0.5-1,0.7-1.7,0.7h-4.8c-0.7,0-1.3-0.2-1.7-0.6
		c-0.4-0.4-0.6-0.7-0.8-0.8l-33.1-50.5v49.6c0,0.7-0.2,1.2-0.7,1.6c-0.4,0.4-1,0.6-1.8,0.6H417.7z"/>
	<path class="st0" d="M63.7,215c-5.8,0-10.7-0.9-14.6-2.7c-3.9-1.8-7-4.1-9.1-7c-2.1-2.8-3.2-5.8-3.3-8.9c0-0.5,0.2-1,0.6-1.5
		c0.4-0.4,0.9-0.7,1.5-0.7H44c0.8,0,1.4,0.2,1.8,0.6c0.4,0.4,0.7,0.9,0.8,1.4c0.4,1.6,1.2,3.2,2.5,4.8c1.3,1.6,3.1,2.9,5.4,3.9
		c2.4,1,5.4,1.5,9.2,1.5c5.7,0,10-1,12.6-3c2.7-2,4.1-4.8,4.1-8.2c0-2.3-0.7-4.2-2.2-5.6c-1.4-1.4-3.6-2.7-6.5-3.9
		c-2.9-1.1-6.7-2.4-11.4-3.7c-4.9-1.4-8.9-2.9-12.1-4.6c-3.2-1.7-5.6-3.7-7.2-6.2c-1.6-2.5-2.3-5.6-2.3-9.4c0-3.6,1-6.8,2.9-9.7
		c1.9-2.8,4.7-5.1,8.4-6.8c3.7-1.7,8.1-2.5,13.2-2.5c4.1,0,7.8,0.5,10.8,1.7c3.1,1.1,5.7,2.6,7.8,4.4c2.1,1.8,3.6,3.8,4.7,5.9
		c1.1,2.1,1.6,4.1,1.7,6.1c0,0.5-0.2,0.9-0.5,1.4c-0.3,0.4-0.9,0.6-1.6,0.6h-5.3c-0.5,0-1-0.1-1.5-0.4c-0.5-0.3-0.9-0.8-1.1-1.5
		c-0.4-2.7-1.9-5-4.6-6.9c-2.7-1.9-6.1-2.8-10.4-2.8c-4.3,0-7.9,0.8-10.6,2.5c-2.7,1.7-4,4.3-4,7.8c0,2.3,0.6,4.2,1.9,5.7
		c1.3,1.5,3.3,2.8,6,4c2.7,1.1,6.3,2.3,10.7,3.6c5.3,1.5,9.7,3,13.1,4.7c3.4,1.6,5.9,3.7,7.5,6.1c1.6,2.4,2.5,5.5,2.5,9.3
		c0,4.2-1.1,7.8-3.3,10.8c-2.2,3-5.3,5.2-9.3,6.8C73.7,214.2,69.1,215,63.7,215z"/>
	<path class="st0" d="M137.2,215c-6.1,0-11.2-1.1-15.3-3.4c-4-2.3-7.1-5.4-9.2-9.5c-2.1-4.1-3.2-8.8-3.4-14.2
		c-0.1-2.7-0.1-5.7-0.1-8.8c0-3.1,0-6.1,0.1-9c0.2-5.4,1.3-10.1,3.4-14.2c2.1-4.1,5.1-7.2,9.2-9.5c4-2.3,9.1-3.4,15.3-3.4
		c4.6,0,8.6,0.6,12.1,1.9c3.5,1.3,6.3,3,8.7,5.1c2.3,2.1,4,4.5,5.3,7.2c1.2,2.6,1.9,5.3,2,8.1c0.1,0.6-0.1,1.1-0.6,1.5
		c-0.4,0.4-0.9,0.6-1.5,0.6h-5.5c-0.6,0-1.1-0.2-1.5-0.5c-0.4-0.3-0.8-0.9-1-1.8c-1.1-5.2-3.3-8.8-6.3-10.7c-3.1-1.9-7-2.9-11.5-2.9
		c-5.4,0-9.7,1.5-12.8,4.5c-3.1,3-4.8,7.9-5,14.5c-0.2,5.5-0.2,11.1,0,16.8c0.2,6.7,1.9,11.5,5,14.5c3.1,3,7.4,4.5,12.8,4.5
		c4.6,0,8.4-1,11.5-2.9c3.1-1.9,5.2-5.5,6.3-10.7c0.2-0.9,0.5-1.5,1-1.8c0.4-0.3,1-0.5,1.5-0.5h5.5c0.6,0,1.1,0.2,1.5,0.6
		c0.4,0.4,0.6,0.8,0.6,1.4c-0.1,2.8-0.8,5.5-2,8.2c-1.2,2.7-3,5.1-5.3,7.2c-2.3,2.1-5.2,3.8-8.7,5.1
		C145.8,214.4,141.8,215,137.2,215z"/>
	<path class="st0" d="M189.5,214c-0.7,0-1.3-0.2-1.7-0.7c-0.4-0.4-0.6-1-0.6-1.6v-65.3c0-0.7,0.2-1.3,0.6-1.8c0.4-0.4,1-0.7,1.7-0.7
		h5.1c0.7,0,1.3,0.2,1.8,0.7s0.7,1,0.7,1.8V174h34.4v-27.6c0-0.7,0.2-1.3,0.6-1.8c0.4-0.4,1-0.7,1.7-0.7h5.1c0.7,0,1.3,0.2,1.8,0.7
		c0.4,0.4,0.7,1,0.7,1.8v65.3c0,0.7-0.2,1.2-0.7,1.6c-0.4,0.4-1,0.7-1.8,0.7h-5.1c-0.7,0-1.2-0.2-1.7-0.7c-0.4-0.4-0.6-1-0.6-1.6
		V183H197v28.7c0,0.7-0.2,1.2-0.7,1.6c-0.4,0.4-1,0.7-1.8,0.7H189.5z"/>
	<path class="st0" d="M292.4,215c-5.7,0-10.6-1-14.7-3c-4.1-2-7.2-5-9.4-9.1c-2.2-4.1-3.4-9.3-3.7-15.5c-0.1-2.9-0.1-5.8-0.1-8.5
		s0-5.5,0.1-8.5c0.3-6.1,1.6-11.3,3.9-15.3s5.5-7.2,9.6-9.2c4.1-2,8.9-3,14.4-3c5.4,0,10.1,1,14.3,3c4.1,2,7.3,5.1,9.6,9.2
		c2.3,4.1,3.6,9.2,3.8,15.3c0.1,2.9,0.2,5.8,0.2,8.5s-0.1,5.5-0.2,8.5c-0.2,6.2-1.4,11.3-3.6,15.5c-2.2,4.1-5.4,7.1-9.5,9.1
		C302.9,214,298,215,292.4,215z M292.4,206.5c5.1,0,9.2-1.5,12.4-4.6c3.2-3.1,5-8,5.3-14.9c0.1-3,0.2-5.7,0.2-8c0-2.4-0.1-5-0.2-8
		c-0.1-4.6-1-8.3-2.5-11.2c-1.6-2.9-3.6-5-6.3-6.3c-2.6-1.3-5.6-2-8.9-2c-3.3,0-6.3,0.7-8.9,2c-2.6,1.3-4.7,3.4-6.3,6.3
		c-1.6,2.9-2.5,6.6-2.7,11.2c-0.1,2.9-0.1,5.6-0.1,8c0,2.4,0,5,0.1,8c0.3,6.9,2,11.8,5.3,14.9C283.1,205,287.3,206.5,292.4,206.5z"
		/>
	<path class="st0" d="M368.7,215c-5.7,0-10.6-1-14.7-3c-4.1-2-7.2-5-9.4-9.1c-2.2-4.1-3.4-9.3-3.7-15.5c-0.1-2.9-0.1-5.8-0.1-8.5
		s0-5.5,0.1-8.5c0.3-6.1,1.6-11.3,3.9-15.3s5.5-7.2,9.6-9.2c4.1-2,8.9-3,14.4-3c5.4,0,10.1,1,14.3,3c4.1,2,7.3,5.1,9.6,9.2
		c2.3,4.1,3.6,9.2,3.8,15.3c0.1,2.9,0.2,5.8,0.2,8.5s-0.1,5.5-0.2,8.5c-0.2,6.2-1.4,11.3-3.6,15.5c-2.2,4.1-5.4,7.1-9.5,9.1
		C379.2,214,374.3,215,368.7,215z M368.7,206.5c5.1,0,9.2-1.5,12.4-4.6c3.2-3.1,5-8,5.3-14.9c0.1-3,0.2-5.7,0.2-8c0-2.4-0.1-5-0.2-8
		c-0.1-4.6-1-8.3-2.5-11.2c-1.6-2.9-3.6-5-6.3-6.3c-2.6-1.3-5.6-2-8.9-2c-3.3,0-6.3,0.7-8.9,2c-2.6,1.3-4.7,3.4-6.3,6.3
		c-1.6,2.9-2.5,6.6-2.7,11.2c-0.1,2.9-0.1,5.6-0.1,8c0,2.4,0,5,0.1,8c0.3,6.9,2,11.8,5.3,14.9C359.4,205,363.6,206.5,368.7,206.5z"
		/>
	<path class="st0" d="M422.1,214c-0.7,0-1.3-0.2-1.7-0.7c-0.4-0.4-0.6-1-0.6-1.6v-65.4c0-0.7,0.2-1.2,0.6-1.6c0.4-0.4,1-0.7,1.7-0.7
		h5.3c0.7,0,1.2,0.2,1.7,0.7c0.4,0.4,0.6,1,0.6,1.6v59h33.2c0.7,0,1.3,0.2,1.8,0.7c0.4,0.4,0.7,1,0.7,1.8v4c0,0.7-0.2,1.2-0.7,1.6
		c-0.4,0.4-1,0.7-1.8,0.7H422.1z"/>
</g>
</svg>
