<?xml version="1.0" encoding="utf-8"?>
<!-- Generator: Adobe Illustrator 23.0.2, SVG Export Plug-In . SVG Version: 6.00 Build 0)  -->
<svg version="1.1" id="Слой_1" xmlns="http://www.w3.org/2000/svg" xmlns:xlink="http://www.w3.org/1999/xlink" x="0px" y="0px"
	 viewBox="0 0 250 250" style="enable-background:new 0 0 250 250;" xml:space="preserve">
<style type="text/css">
	.st0{fill:#0077EE;}
</style>
<polygon class="st0" points="198.5,95 198.5,206 53.4,206 53.4,40 192,40 198.5,40 208,40 208,30 44,30 44,216 208,216 208,95 "/>
<g>
	<path class="st0" d="M203.5,88.5c-3.7,0-6.8-0.6-9.3-1.6c-2.5-1.1-4.4-2.5-5.7-4.3c-1.3-1.8-2-3.6-2.1-5.6c0-0.4,0.1-0.7,0.4-0.9
		c0.2-0.2,0.5-0.4,0.9-0.4h5.3c0.5,0,0.9,0.1,1.2,0.3c0.3,0.2,0.5,0.5,0.7,0.8c0.2,0.8,0.7,1.5,1.4,2.3c0.7,0.7,1.6,1.4,2.8,1.8
		c1.2,0.5,2.7,0.7,4.5,0.7c2.9,0,5-0.5,6.5-1.4c1.4-1,2.1-2.3,2.1-3.9c0-1.2-0.4-2.1-1.1-2.8c-0.8-0.7-1.9-1.3-3.5-1.9
		c-1.6-0.6-3.7-1.2-6.3-1.8c-3-0.7-5.5-1.6-7.5-2.6s-3.5-2.3-4.6-3.9c-1-1.6-1.5-3.5-1.5-5.9c0-2.3,0.6-4.4,1.9-6.2
		c1.3-1.8,3.1-3.2,5.4-4.3c2.3-1,5.1-1.6,8.4-1.6c2.6,0,4.9,0.4,6.9,1.1c2,0.7,3.7,1.6,5,2.8s2.3,2.4,3,3.7c0.7,1.3,1.1,2.6,1.1,3.8
		c0,0.3-0.1,0.6-0.3,0.9c-0.2,0.3-0.5,0.4-0.9,0.4h-5.6c-0.3,0-0.6-0.1-1-0.2c-0.3-0.2-0.6-0.5-0.8-0.9c-0.2-1.2-1-2.3-2.3-3.2
		c-1.3-0.9-3-1.3-5.1-1.3c-2.2,0-3.9,0.4-5.2,1.2c-1.3,0.8-2,2-2,3.7c0,1.1,0.3,2.1,1,2.8c0.7,0.7,1.7,1.4,3.2,2
		c1.5,0.6,3.4,1.2,5.8,1.8c3.4,0.8,6.2,1.6,8.3,2.6c2.2,1,3.7,2.3,4.7,3.8c1,1.5,1.5,3.5,1.5,5.9c0,2.6-0.7,4.9-2.1,6.8
		s-3.4,3.3-6,4.3C209.8,88,206.9,88.5,203.5,88.5z"/>
</g>
<g>
	<path class="st0" d="M76.8,181.8c-1.1,0-2.1-0.4-2.8-1.1c-0.7-0.7-1.1-1.7-1.1-2.8v-111c0-1.2,0.4-2.2,1.1-3
		c0.7-0.7,1.7-1.1,2.8-1.1h8.5c1.4,0,2.4,0.3,3.1,1c0.7,0.7,1.1,1.2,1.4,1.7l35.9,68.7l36.2-68.7c0.2-0.5,0.7-1,1.3-1.7
		c0.6-0.7,1.6-1,3-1h8.3c1.2,0,2.2,0.4,3,1.1c0.7,0.7,1.1,1.7,1.1,3v111c0,1.1-0.4,2.1-1.1,2.8c-0.7,0.7-1.7,1.1-3,1.1H166
		c-1.1,0-2.1-0.4-2.8-1.1c-0.7-0.7-1.1-1.7-1.1-2.8V94.3l-28.4,55.4c-0.5,1.1-1.1,2-2,2.6c-0.9,0.6-2,0.9-3.4,0.9H123
		c-1.5,0-2.6-0.3-3.4-0.9c-0.8-0.6-1.5-1.5-2-2.6L89,94.3v83.6c0,1.1-0.4,2.1-1.1,2.8c-0.7,0.7-1.7,1.1-2.8,1.1H76.8z"/>
</g>
</svg>
